<?xml version="1.0" encoding="utf-8"?>
<!-- Generator: Adobe Illustrator 19.2.1, SVG Export Plug-In . SVG Version: 6.00 Build 0)  -->
<svg version="1.1" id="Layer_1" xmlns="http://www.w3.org/2000/svg" xmlns:xlink="http://www.w3.org/1999/xlink" x="0px" y="0px"
	 viewBox="0 0 64 64" style="enable-background:new 0 0 64 64;" xml:space="preserve">
<style type="text/css">
	.st0{fill:#962C2C;}
	.st1{fill:#D9E3E8;}
	.st2{fill:#ED4C5C;}
	.st3{fill:#94989B;}
	.st4{fill:#C94747;}
	.st5{fill:#FFF088;}
	.st6{font-family:'Chalkduster';}
	.st7{font-size:35px;}
</style>
<path class="st0" d="M55,35.1l7.5,7.4L29.2,58.4c0,0-4.4,2-6.5-1.2C14.5,44.4,55,35.1,55,35.1z"/>
<path class="st1" d="M28.4,49.1c0,0-6.4,2.2-5.2,6.5c1.2,4.4,6.3,1.7,6.3,1.7l31.6-14.7c0,0-1.8-4.7,1.4-7.8L28.4,49.1z"/>
<path class="st2" d="M33.7,5L64,34.5l-35.8,14l-23-35.9L33.7,5z"/>
<path class="st3" d="M61,38l-21.2,8.6l20.8-9.5L61,38z M60.7,40.6l-22.5,9.3l22.1-10.2L60.7,40.6z M60.9,42L32.2,54.4l28.3-13.3
	L60.9,42z"/>
<path class="st4" d="M22.7,57.2c-3.5-7.3,5.5-8.6,5.5-8.6l-23-35.9c0,0-5.2-0.1-5.2,5.3c0,2.2,1,3.9,1,3.9L22.7,57.2z"/>
<text transform="matrix(1 0 0 1 23.0231 37.1035)" class="st5 st6 st7">2</text>
</svg>
